<svg width="128" height="40" viewBox="0 0 128 40" fill="none" xmlns="http://www.w3.org/2000/svg">
<rect x="0.5" y="0.5" width="127" height="39" rx="3.5" fill="#F7F7FC"/>
<rect x="0.5" y="0.5" width="127" height="39" rx="3.5" stroke="#F2F4F7"/>
<g clip-path="url(#clip0_386_1919)">
<path d="M22.7405 15.2796C22.5032 15.2763 22.157 15.5235 22.0317 15.7543C21.6526 16.4697 21.379 17.2412 21.0163 17.9664C20.8218 18.3555 20.9108 18.5862 21.1878 18.8961C21.9328 19.727 22.701 20.5478 23.3175 21.471C24.056 22.5754 23.9571 23.7523 23.0142 24.6754C22.3021 25.3743 21.4614 26.004 20.5647 26.4326C19.2657 27.0491 17.8613 27.4414 16.5129 27.959C16.325 28.0316 16.0349 28.2722 16.0118 28.4305C15.9327 28.9316 16.2129 29.0766 16.3975 29.159C17.9503 29.8382 19.5262 30.4613 21.1647 31.1272C21.6922 30.3327 22.223 29.5942 22.6878 28.8129C25.1966 24.6029 25.7505 20.2643 23.4428 15.7741C23.3208 15.54 22.9845 15.2829 22.7405 15.2796Z" fill="#40444C"/>
<path d="M78.3601 9.81996L78.3041 9.76392C77.5557 9.01554 76.3458 9.01554 75.5974 9.76392C74.849 10.5123 74.849 11.7222 75.5974 12.4706L75.6534 12.5266C76.7348 13.608 77.948 12.9387 78.3601 12.5266C79.1085 11.7783 79.1085 10.5683 78.3601 9.81996Z" fill="#40444C"/>
<path d="M70.4037 9.89593C70.2091 10.0904 70.0608 10.3179 69.9619 10.5586L72.8664 13.074C73.0114 12.9883 73.1465 12.8861 73.2719 12.7641L73.3312 12.7048C74.4784 11.5575 73.7696 10.2751 73.3312 9.83659C72.54 9.04536 71.2542 9.04536 70.463 9.83659L70.4037 9.89593Z" fill="#40444C"/>
<path d="M27.2777 8.60028C27.2777 8.60028 26.5623 10.0871 26.2392 10.8487C26.1073 11.1586 26.0216 11.5179 26.0382 11.8509C26.1568 14.4982 26.2656 17.1489 26.4568 19.7896C26.6546 22.4798 27.9799 24.4447 30.469 25.5787C32.2097 26.3733 34.0592 26.7326 35.9483 26.8414C38.3319 26.9766 40.7221 27.0491 43.1122 27.0689C47.0815 27.1018 51.0212 26.8184 54.9048 26.0403C56.1048 25.8854 59.85 24.9161 60.4995 24.5633C61.2314 24.1677 61.1819 24.2601 61.9171 24.448C63.7039 24.8996 68.4217 24.7908 69.7799 24.3886C70.6899 24.1216 71.5207 23.904 71.7218 23.2809C72.5559 24.5963 73.024 25.2656 74.4614 25.1369C75.8955 25.0084 76.0207 24.9359 77.4285 24.6227C78.6055 24.3623 79.4726 23.6007 79.8253 22.4567C80.0429 21.7479 80.0165 21.4083 80.0759 20.8776C80.2935 19.0017 80.0033 17.2214 78.9187 15.6422C78.7439 15.3884 78.6351 15.1378 78.0186 15.1774C77.8274 15.1906 77.5406 15.4741 77.4219 15.7049C77.0659 16.4038 76.7955 17.1489 76.4395 17.8511C76.2383 18.2467 76.3307 18.5269 76.6406 18.8137C77.2999 19.4203 77.9098 20.0203 78.7374 20.8577C77.1615 21.0226 76.6175 21.194 75.2592 21.2995C73.8943 21.405 71.4119 21.3852 70.7129 20.1588C70.202 19.2588 69.8723 18.639 69.0415 18.0258C67.6568 17.0038 65.4216 17.0104 63.5523 17.973C62.7083 18.4082 61.8182 19.2588 61.6731 20.2709C61.6072 20.7225 61.4523 21.0951 60.9446 21.227C53.207 23.215 44.1276 24.1447 36.5055 23.2908C34.5637 23.0732 32.6416 22.7534 30.7987 22.0347C29.1635 21.3952 28.4217 20.2643 28.4547 18.4939C28.5107 15.2334 28.4744 11.9696 28.458 8.70578C28.458 8.70578 28.5107 8.07279 27.858 8.01675C27.6008 7.99367 27.2679 8.60687 27.2679 8.60687L27.2777 8.60028ZM69.1503 22.1501L62.8138 22.0743C62.8138 22.0743 63.282 19.572 65.86 19.4764C69.5723 19.3346 69.1503 22.1534 69.1503 22.1534V22.1501Z" fill="#40444C"/>
<path d="M18.6066 8.90354C18.6066 8.90354 18.6593 8.27055 18.0065 8.2145C17.7494 8.19143 17.4164 8.80463 17.4164 8.80463C17.4164 8.80463 16.701 10.2915 16.3779 11.053C16.2461 11.3629 16.1603 11.7223 16.1768 12.0553C16.2362 13.3542 16.2922 14.6564 16.3549 15.9554H16.3483C16.434 17.8049 16.523 19.6544 16.612 21.5039C16.6648 22.6412 16.7274 23.7754 16.7867 24.9358H17.8384C18.0956 23.6434 18.5439 22.3709 18.5736 21.0885C18.6132 19.3642 18.6132 11.241 18.6 8.90683L18.6066 8.90354Z" fill="#40444C"/>
<path d="M86.2778 14.8047C85.7075 15.4014 85.2821 16.0871 85.002 16.8124L93.8439 24.1478C94.2692 23.8841 94.6714 23.5708 95.034 23.1917L95.2055 23.0137C98.5583 19.5125 96.3561 15.7212 95.0209 14.442C92.6044 12.1244 88.7668 12.2101 86.4492 14.6266L86.2778 14.8047Z" fill="#40444C"/>
<path d="M105.678 24.6522C108.983 24.6522 111.662 21.9732 111.662 18.6684C111.662 15.3638 108.983 12.6848 105.678 12.6848C102.373 12.6848 99.6943 15.3638 99.6943 18.6684C99.6943 21.9732 102.373 24.6522 105.678 24.6522Z" fill="#40444C"/>
</g>
<defs>
<clipPath id="clip0_386_1919">
<rect width="96" height="24" fill="white" transform="translate(16 8)"/>
</clipPath>
</defs>
</svg>
